<?xml version="1.0" standalone="no"?>
<!DOCTYPE svg PUBLIC "-//W3C//DTD SVG 20010904//EN"
 "http://www.w3.org/TR/2001/REC-SVG-20010904/DTD/svg10.dtd">
<svg version="1.0" xmlns="http://www.w3.org/2000/svg"
 width="818.000000pt" height="818.000000pt" viewBox="0 0 818.000000 818.000000"
 preserveAspectRatio="xMidYMid meet">
<metadata>
Created by potrace 1.14, written by Peter Selinger 2001-2017
</metadata>
<g transform="translate(0.000000,818.000000) scale(0.100000,-0.100000)"
fill="#000000" stroke="none">
<path d="M1109 5676 c-1 -1442 -1 -1522 6 -1573 15 -102 42 -240 50 -254 4 -5
8 -17 10 -26 5 -25 39 -117 45 -123 3 -3 6 -12 8 -20 6 -25 84 -175 93 -178 5
-2 9 -9 9 -15 0 -19 78 -125 153 -209 15 -16 27 -35 27 -41 0 -6 2 -8 5 -5 3
3 29 -18 58 -46 29 -28 70 -64 91 -81 21 -16 45 -36 52 -42 7 -7 16 -13 21
-13 4 0 21 -11 36 -25 15 -14 27 -23 27 -20 0 4 13 -3 29 -14 16 -12 34 -21
39 -21 6 0 12 -3 14 -7 3 -9 69 -41 78 -39 3 0 17 -7 32 -16 27 -18 227 -87
268 -92 14 -2 36 -6 50 -9 60 -15 104 -19 250 -22 141 -3 193 1 315 21 22 3
46 6 53 7 6 0 12 4 12 9 0 5 4 7 9 4 5 -4 22 -1 38 5 15 6 39 13 53 16 13 2
29 8 36 14 6 5 14 6 17 2 4 -3 7 -1 7 6 0 7 3 10 8 7 4 -2 21 1 37 8 17 7 35
14 40 15 6 2 16 7 23 13 6 6 12 7 12 3 0 -4 7 -2 15 5 9 7 40 25 70 40 30 15
52 30 48 34 -3 3 1 6 11 6 16 0 63 29 94 58 7 6 22 16 31 22 37 19 159 133
232 217 48 55 129 169 129 181 0 6 4 12 8 14 12 5 82 135 82 153 0 8 5 15 10
15 6 0 10 6 10 14 0 28 17 25 56 -12 22 -20 75 -68 118 -107 44 -38 94 -83
112 -100 18 -16 43 -39 56 -49 31 -25 152 -133 208 -186 25 -23 62 -56 83 -73
21 -18 50 -42 63 -54 35 -32 111 -83 123 -83 6 0 11 -3 11 -8 0 -4 15 -13 33
-21 17 -8 34 -18 37 -22 6 -9 164 -79 179 -79 6 0 11 -5 11 -12 0 -6 3 -9 6
-5 3 3 18 1 33 -4 37 -15 131 -40 164 -45 16 -2 33 -6 38 -9 33 -21 481 -27
501 -7 7 7 17 8 30 1 10 -5 18 -6 18 -1 0 5 6 9 13 10 28 3 62 10 62 11 0 3
13 6 56 14 15 3 40 12 57 21 16 8 32 13 34 10 3 -2 18 2 34 11 16 8 35 15 42
15 6 0 12 4 12 8 0 5 6 9 13 9 16 0 78 30 152 74 28 16 60 33 73 39 12 5 22
14 22 20 0 5 5 10 11 10 12 0 86 59 163 130 69 64 67 62 111 115 22 26 46 54
52 61 7 7 13 17 13 22 0 6 7 13 16 16 9 4 14 9 11 13 -4 3 3 14 15 24 11 11
18 19 14 19 -4 0 11 26 32 58 22 31 40 60 41 64 1 4 12 29 24 55 11 27 22 50
22 53 1 3 7 19 14 35 23 53 42 109 47 134 3 13 9 31 13 40 5 9 7 24 6 34 -2 9
0 17 5 17 5 0 7 11 5 25 -1 14 1 25 4 25 4 0 7 10 8 23 0 12 4 47 8 77 4 30 8
67 7 82 0 16 5 25 10 22 6 -4 6 2 -1 13 -7 14 -7 23 1 31 9 9 9 12 -1 12 -11
0 -11 3 -1 15 9 11 9 15 1 15 -8 0 -9 6 -2 18 6 11 6 24 -1 36 -7 13 -7 21 2
26 8 5 8 9 2 11 -10 4 -23 84 -22 137 0 13 -5 20 -10 17 -5 -3 -7 0 -4 8 3 8
-2 43 -11 78 -10 35 -19 75 -22 89 -2 13 -10 28 -16 32 -7 4 -9 8 -5 8 9 0
-20 75 -60 160 -14 30 -25 58 -24 63 1 4 -3 7 -8 7 -6 0 -10 4 -10 10 0 8 -34
66 -72 124 -20 28 -90 118 -113 143 -87 94 -109 115 -214 199 -89 71 -327 203
-372 207 -11 1 -19 5 -19 9 0 4 -8 8 -19 8 -10 0 -35 7 -55 15 -20 8 -36 12
-36 9 0 -4 -7 -1 -15 6 -8 7 -15 10 -15 7 0 -3 -15 -1 -32 5 -18 5 -47 11 -64
12 -17 2 -35 5 -40 8 -5 3 -25 5 -44 5 -19 1 -43 4 -53 8 -23 10 -351 0 -368
-11 -7 -4 -22 -8 -33 -9 -36 -3 -89 -15 -157 -35 -36 -11 -68 -20 -71 -20 -3
0 -6 96 -6 213 0 237 -2 287 -14 287 -5 0 -4 8 1 18 5 10 6 24 1 33 -5 8 -11
28 -14 45 -2 16 -5 29 -6 29 -1 0 -3 7 -5 15 -18 91 -113 276 -189 367 -42 51
-176 173 -189 173 -4 0 -17 9 -29 20 -43 40 -257 131 -341 146 -131 22 -205
25 -211 8 -3 -8 -2 -14 2 -14 4 0 7 -11 7 -25 0 -14 -4 -25 -8 -25 -4 0 -3 -8
2 -18 6 -11 6 -24 0 -35 -7 -11 -6 -17 1 -17 8 0 8 -6 0 -20 -6 -11 -7 -20 -3
-20 10 0 10 -41 0 -57 -4 -7 -3 -14 2 -17 6 -4 6 -18 1 -36 -5 -19 -5 -30 1
-30 6 0 6 -6 0 -18 -6 -11 -6 -24 -1 -32 5 -9 5 -19 -1 -26 -7 -8 -7 -14 0
-18 7 -4 7 -15 1 -31 -6 -15 -6 -27 0 -30 6 -4 7 -13 1 -23 -6 -11 -6 -24 0
-35 7 -12 6 -17 -1 -17 -6 0 -8 -5 -5 -11 11 -16 11 -79 1 -79 -4 0 -4 -6 3
-13 8 -10 7 -17 -2 -26 -9 -11 -9 -14 0 -18 9 -3 10 -10 3 -22 -5 -10 -7 -21
-4 -23 10 -10 12 -48 3 -48 -6 0 -6 -7 -1 -17 5 -10 6 -29 2 -43 -4 -14 -3
-33 2 -42 5 -10 5 -18 0 -18 -7 0 -8 -33 -2 -50 1 -3 1 -9 0 -15 -6 -28 -5
-66 1 -77 4 -7 3 -20 -2 -30 -7 -12 -6 -18 1 -18 8 0 8 -6 0 -20 -6 -11 -7
-20 -3 -20 10 0 10 -41 0 -57 -4 -7 -3 -14 2 -17 6 -4 6 -18 1 -36 -5 -19 -5
-30 1 -30 6 0 6 -6 0 -18 -6 -11 -6 -24 -1 -32 5 -9 5 -19 -1 -26 -7 -8 -6
-14 1 -19 7 -4 7 -12 0 -26 -8 -13 -7 -19 0 -19 8 0 8 -6 0 -20 -6 -11 -7 -20
-3 -20 10 0 10 -41 0 -57 -4 -7 -3 -14 2 -17 6 -4 6 -18 1 -36 -5 -19 -5 -30
1 -30 6 0 6 -6 0 -18 -6 -11 -6 -24 -1 -32 5 -9 5 -19 -1 -26 -7 -8 -7 -14 0
-18 7 -4 7 -15 1 -31 -6 -15 -6 -27 1 -30 6 -4 6 -13 0 -23 -6 -10 -6 -23 0
-34 7 -12 6 -18 -1 -18 -7 0 -8 -6 -2 -17 5 -10 6 -29 2 -43 -4 -14 -3 -33 2
-42 5 -10 5 -18 0 -18 -4 0 -8 -9 -8 -20 0 -11 4 -20 8 -20 5 0 4 -9 -2 -20
-8 -15 -8 -20 1 -20 8 0 9 -4 0 -13 -7 -10 -7 -17 0 -24 8 -8 8 -13 0 -17 -6
-4 -25 6 -43 23 -40 36 -58 51 -187 165 -55 49 -101 93 -101 98 0 4 -4 8 -9 8
-8 0 -64 47 -143 121 -21 20 -38 35 -38 33 0 -2 -11 7 -25 20 -14 13 -44 36
-67 52 -24 16 -45 32 -48 35 -3 4 -32 21 -65 40 -33 18 -63 37 -66 42 -3 5 -9
8 -13 8 -3 0 -35 12 -70 29 -55 25 -156 62 -206 75 -17 5 -95 24 -125 31 -11
3 -45 7 -75 9 -30 2 -63 7 -73 10 -18 8 -307 0 -343 -8 -40 -10 -99 -20 -121
-21 -13 -1 -23 -3 -23 -6 0 -3 -8 -6 -18 -7 -9 -1 -37 -8 -62 -17 -49 -17 -74
-8 -62 24 4 10 5 78 2 150 -3 73 -3 134 -1 136 6 5 -3 178 -9 194 -1 3 -2 9
-1 13 1 5 -8 43 -20 85 -11 43 -22 82 -23 87 -1 6 -7 20 -14 31 -6 12 -8 24
-5 28 3 3 1 6 -5 6 -7 0 -12 7 -12 15 0 15 -42 89 -93 165 -17 25 -71 84 -121
133 -105 101 -113 108 -146 125 -14 7 -53 28 -88 47 -35 20 -67 33 -73 30 -5
-4 -9 -2 -9 2 0 11 -127 53 -158 53 -12 0 -22 3 -22 8 0 4 -17 8 -38 9 -20 1
-63 4 -94 6 l-58 3 -1 -1360z m1534 -921 c52 -3 137 -26 137 -37 0 -5 4 -7 8
-4 18 11 162 -90 162 -113 0 -6 8 -11 17 -11 9 0 14 -3 10 -6 -3 -3 2 -15 12
-26 20 -21 63 -100 69 -126 2 -10 6 -29 9 -44 3 -16 9 -28 13 -28 3 0 5 -42 4
-92 -5 -122 -6 -138 -16 -138 -4 0 -8 -7 -8 -17 0 -62 -132 -231 -209 -269
-23 -10 -41 -22 -41 -25 0 -4 -21 -12 -47 -19 -27 -7 -52 -16 -58 -20 -5 -3
-34 -6 -62 -6 -29 1 -53 -3 -53 -7 0 -5 -5 -5 -12 -1 -7 5 -26 8 -43 9 -16 0
-36 4 -42 8 -7 5 -17 6 -21 3 -4 -2 -43 12 -87 33 -73 35 -147 94 -195 157
-19 25 -56 96 -52 101 1 2 -4 16 -12 31 -19 36 -28 94 -27 162 1 55 3 68 17
125 12 49 65 156 80 162 8 3 14 10 14 16 0 30 164 147 227 162 10 3 37 9 61
15 24 6 47 8 53 5 5 -4 17 -2 26 4 10 5 21 7 26 4 5 -3 23 -6 40 -8z m3060
-12 c6 -5 31 -15 55 -23 23 -7 42 -18 42 -23 0 -6 3 -7 7 -4 8 9 65 -34 119
-88 48 -49 112 -153 108 -178 -1 -9 2 -17 7 -17 5 0 9 -13 9 -30 0 -16 3 -30
8 -30 20 0 1 -196 -25 -260 -4 -8 -7 -18 -7 -21 -1 -3 -18 -32 -38 -65 -61
-100 -182 -193 -271 -209 -20 -4 -37 -10 -37 -14 0 -15 -215 -4 -260 13 -25
10 -51 18 -57 18 -7 1 -13 5 -13 8 0 4 -15 14 -32 21 -51 21 -152 128 -187
197 -17 34 -31 63 -30 64 0 2 -2 10 -4 18 -28 88 -29 184 -2 283 11 42 69 156
76 151 4 -2 10 5 14 15 7 23 102 107 116 104 5 -2 9 2 9 8 0 10 68 44 83 41 4
-1 7 3 7 10 0 6 2 9 5 6 3 -3 27 1 53 8 52 13 225 11 245 -3z"/>
<path d="M3208 2478 c-2 -7 -3 -57 -3 -110 1 -54 0 -98 -3 -98 -3 0 -19 9 -37
20 -101 62 -239 18 -297 -94 -29 -56 -34 -180 -9 -243 22 -57 63 -108 103
-129 55 -28 178 -25 208 6 16 17 41 32 39 24 -7 -41 -1 -44 91 -44 l90 0 0
340 0 340 -89 0 c-62 0 -90 -4 -93 -12z m-41 -323 c32 -22 47 -96 30 -148 -21
-63 -95 -84 -140 -39 -20 21 -34 94 -24 134 15 60 85 88 134 53z"/>
<path d="M6730 2150 l0 -340 89 0 c62 0 90 4 93 13 2 6 4 158 3 337 l0 325
-93 3 -92 3 0 -341z"/>
<path d="M650 2131 l0 -322 200 1 c211 2 250 7 311 46 49 31 73 76 73 139 -1
64 -24 106 -76 135 l-40 22 32 19 c38 24 70 90 63 133 -7 50 -43 94 -98 118
-46 21 -68 23 -257 26 l-208 4 0 -321z m348 163 c26 -17 29 -50 5 -76 -13 -14
-31 -18 -90 -18 l-73 0 0 55 0 55 68 -1 c39 -1 76 -7 90 -15z m23 -245 c25
-25 24 -51 -2 -75 -17 -15 -36 -19 -98 -19 l-76 0 -3 58 -3 58 82 -2 c65 -1
86 -6 100 -20z"/>
<path d="M5470 2130 l0 -322 218 4 c178 3 224 7 255 21 88 41 127 112 107 196
-13 54 -35 83 -81 107 l-31 16 30 18 c72 44 86 158 26 218 -8 7 -35 23 -61 35
-44 20 -67 22 -255 25 l-208 4 0 -322z m356 155 c18 -25 18 -44 -3 -67 -13
-14 -31 -18 -90 -18 l-73 0 0 54 0 55 76 -2 c62 -2 78 -6 90 -22z m14 -235
c27 -27 25 -55 -6 -79 -22 -17 -40 -21 -100 -20 l-74 1 0 59 0 59 80 0 c67 0
83 -3 100 -20z"/>
<path d="M5090 2349 l0 -69 -35 0 -35 0 3 -57 c2 -56 3 -58 30 -59 15 -1 29
-3 32 -5 2 -3 5 -58 5 -124 2 -150 17 -183 94 -216 41 -17 62 -20 112 -16 33
3 72 11 86 18 l26 11 -17 62 c-12 43 -22 60 -32 57 -28 -6 -61 -3 -71 7 -13
13 -19 183 -8 197 5 6 33 9 63 9 l55 -2 0 59 -1 59 -62 0 -62 0 0 58 c-1 31
-1 62 -2 67 -1 6 -38 11 -91 12 l-90 2 0 -70z"/>
<path d="M1583 2305 c-17 -7 -42 -26 -57 -41 l-26 -29 0 38 0 38 -92 -3 -93
-3 -1 -235 c0 -129 2 -241 4 -247 3 -9 31 -13 93 -13 l89 0 0 130 c0 148 9
179 60 200 18 7 47 13 65 12 l33 -1 0 83 c-1 79 -2 84 -23 84 -12 0 -35 -6
-52 -13z"/>
<path d="M1868 2307 c-132 -44 -202 -176 -168 -316 27 -115 116 -181 251 -187
184 -7 293 97 285 273 -5 103 -49 174 -134 214 -56 26 -179 35 -234 16z m143
-150 c28 -21 40 -56 38 -110 -3 -68 -39 -108 -90 -102 -43 6 -66 30 -77 81
-11 48 5 107 35 129 22 18 73 19 94 2z"/>
<path d="M2451 2309 c-25 -5 -66 -16 -91 -24 l-47 -16 11 -34 c7 -19 15 -38
19 -41 4 -4 7 -16 7 -26 0 -21 16 -23 57 -7 15 6 39 13 52 15 13 3 26 6 30 6
3 1 23 -1 44 -6 26 -5 41 -15 49 -32 6 -13 9 -26 7 -28 -2 -2 -47 -6 -99 -8
-150 -7 -200 -42 -206 -144 -4 -69 19 -112 76 -141 70 -36 165 -27 213 21 16
16 17 16 17 -9 l0 -26 91 3 92 3 -1 180 c0 225 -9 253 -96 297 -44 22 -154 31
-225 17z m139 -313 c0 -56 -81 -95 -119 -57 -13 13 -18 27 -14 43 9 32 20 38
81 38 48 0 52 -2 52 -24z"/>
<path d="M3625 2299 c-99 -37 -155 -129 -152 -250 4 -122 70 -210 182 -240 50
-14 154 -5 201 17 41 19 106 82 101 97 -1 5 -31 25 -66 44 l-64 34 -26 -25
c-32 -31 -79 -34 -111 -8 -24 19 -38 91 -26 136 16 63 87 86 132 41 27 -27 27
-27 112 18 l54 28 -18 27 c-57 88 -204 125 -319 81z"/>
<path d="M4151 2310 c-25 -5 -66 -17 -92 -25 l-47 -16 20 -57 c12 -31 22 -58
24 -60 1 -2 33 5 71 15 75 21 128 17 150 -13 26 -36 16 -42 -85 -46 -114 -4
-165 -25 -194 -78 -46 -86 -4 -190 87 -220 64 -21 161 -1 192 39 11 14 12 12
13 -11 l0 -28 90 0 c65 0 90 3 91 13 4 57 -1 352 -7 369 -12 41 -45 78 -87
100 -47 24 -155 32 -226 18z m139 -314 c0 -73 -123 -101 -134 -31 -6 36 22 55
81 55 49 0 53 -2 53 -24z"/>
<path d="M4674 2304 c-60 -22 -104 -73 -111 -133 -10 -86 41 -142 158 -176 72
-20 99 -39 81 -56 -20 -21 -87 -12 -151 19 l-59 29 -26 -55 c-31 -63 -29 -70
47 -103 42 -18 71 -23 147 -23 86 -1 99 2 141 26 48 28 90 92 84 126 -2 9 -4
28 -4 41 -2 42 -71 97 -153 121 -84 25 -107 42 -89 63 15 19 69 12 137 -18
l51 -23 27 53 c14 28 26 57 26 62 0 11 -56 34 -125 52 -55 15 -132 12 -181 -5z"/>
<path d="M6242 2290 c-35 -16 -70 -42 -87 -64 -79 -103 -70 -263 19 -350 58
-56 113 -74 212 -71 164 5 261 99 261 255 1 105 -44 183 -132 228 -40 20 -67
26 -132 28 -71 2 -89 -1 -141 -26z m186 -140 c44 -41 43 -148 -2 -186 -30 -27
-80 -25 -109 5 -21 21 -33 94 -23 136 16 62 89 86 134 45z"/>
<path d="M7185 2315 c-5 -2 -42 -13 -81 -24 l-71 -21 21 -60 c23 -67 15 -65
111 -38 58 16 112 9 132 -18 27 -37 17 -44 -68 -44 -144 0 -211 -38 -225 -126
-15 -101 44 -174 148 -179 66 -4 105 6 137 36 l21 20 0 -26 c0 -25 0 -25 90
-25 l90 0 1 28 c4 126 -3 346 -12 369 -14 38 -47 72 -89 90 -31 14 -178 26
-205 18z m125 -318 c0 -34 -25 -64 -60 -71 -57 -11 -93 31 -63 73 11 17 25 21
69 21 50 0 54 -2 54 -23z"/>
<path d="M4969 1388 c0 -10 -1 -54 -1 -98 0 -191 -2 -180 32 -180 28 0 30 3
30 34 0 50 14 51 44 6 22 -34 32 -40 61 -40 l35 0 -25 38 c-51 77 -59 95 -44
107 8 6 26 24 41 41 l27 29 -40 -3 c-31 -3 -49 -13 -70 -36 l-28 -31 -2 60
c-1 33 -1 65 0 71 1 7 -12 14 -29 16 -24 4 -30 1 -31 -14z"/>
<path d="M2996 1381 c-1 -4 -2 -64 -2 -136 l1 -130 30 0 30 0 -2 78 c-1 42 2
77 5 77 4 -1 34 -36 67 -80 53 -70 64 -79 93 -79 l33 -1 -3 137 -3 137 -27 1
c-19 1 -28 -3 -29 -14 0 -9 -1 -49 -1 -89 0 -41 -4 -70 -7 -65 -4 4 -35 44
-69 89 -49 64 -67 80 -87 80 -15 0 -27 -2 -29 -5z"/>
<path d="M3720 1353 c0 -20 -5 -33 -13 -33 -7 0 -13 -9 -13 -20 0 -11 6 -20
13 -20 9 0 13 -19 13 -65 0 -52 4 -69 20 -85 22 -22 60 -26 91 -10 26 14 10
44 -23 45 -21 0 -23 5 -26 58 -3 55 -2 57 23 57 20 0 25 5 25 24 0 19 -4 22
-25 18 -23 -4 -25 -1 -25 29 0 31 -3 34 -30 34 -27 1 -30 -2 -30 -32z"/>
<path d="M3428 1311 c-92 -54 -50 -206 55 -203 34 1 87 21 87 32 0 18 -29 30
-57 23 -33 -9 -55 -5 -65 10 -14 22 -8 24 55 22 79 -2 87 1 87 36 0 68 -99
118 -162 80z m91 -49 c18 -17 11 -22 -33 -24 -45 -2 -57 9 -32 28 23 16 45 15
65 -4z"/>
<path d="M3958 1322 c-23 -5 -24 -1 15 -112 32 -90 35 -95 64 -98 30 -3 32 0
50 55 l20 58 20 -55 c18 -48 24 -55 50 -58 34 -3 34 -3 74 123 12 39 24 75 26
81 2 6 -9 9 -29 6 -31 -3 -35 -8 -52 -65 l-19 -62 -18 61 c-16 51 -23 63 -44
66 -30 6 -37 -2 -61 -72 l-18 -55 -19 62 c-18 62 -28 72 -59 65z"/>
<path d="M4431 1309 c-81 -49 -69 -164 20 -194 100 -34 182 61 134 155 -27 53
-101 72 -154 39z m103 -72 c15 -40 -6 -77 -43 -77 -19 0 -35 8 -44 21 -16 21
-16 29 -3 66 13 41 74 34 90 -10z"/>
<path d="M4729 1296 c-1 -35 -1 -104 0 -153 1 -30 4 -33 31 -33 l30 0 0 64 c0
66 14 96 46 96 8 0 14 10 14 25 0 27 -26 35 -48 13 -8 -8 -12 -8 -12 -1 0 6
-13 13 -30 15 -28 4 -30 2 -31 -26z"/>
</g>
</svg>
